<svg class="rich-terminal" viewBox="0 0 1604 1074.8" xmlns="http://www.w3.org/2000/svg">
    <!-- Generated with Rich https://www.textualize.io -->
    <style>

    @font-face {
        font-family: "Fira Code";
        src: local("FiraCode-Regular"),
                url("https://cdnjs.cloudflare.com/ajax/libs/firacode/6.2.0/woff2/FiraCode-Regular.woff2") format("woff2"),
                url("https://cdnjs.cloudflare.com/ajax/libs/firacode/6.2.0/woff/FiraCode-Regular.woff") format("woff");
        font-style: normal;
        font-weight: 400;
    }
    @font-face {
        font-family: "Fira Code";
        src: local("FiraCode-Bold"),
                url("https://cdnjs.cloudflare.com/ajax/libs/firacode/6.2.0/woff2/FiraCode-Bold.woff2") format("woff2"),
                url("https://cdnjs.cloudflare.com/ajax/libs/firacode/6.2.0/woff/FiraCode-Bold.woff") format("woff");
        font-style: bold;
        font-weight: 700;
    }

    .terminal-615156591-matrix {
        font-family: Fira Code, monospace;
        font-size: 20px;
        line-height: 24.4px;
        font-variant-east-asian: full-width;
    }

    .terminal-615156591-title {
        font-size: 18px;
        font-weight: bold;
        font-family: arial;
    }

    .terminal-615156591-r1 { fill: #c5c8c6 }
.terminal-615156591-r2 { fill: #e0e0e0 }
.terminal-615156591-r3 { fill: #e0e0e0;font-weight: bold }
.terminal-615156591-r4 { fill: #ddedf9;font-weight: bold }
.terminal-615156591-r5 { fill: #fd971f }
.terminal-615156591-r6 { fill: #98e024 }
.terminal-615156591-r7 { fill: #1e1e1e }
.terminal-615156591-r8 { fill: #003054 }
.terminal-615156591-r9 { fill: #ffa62b;font-weight: bold }
.terminal-615156591-r10 { fill: #495259 }
    </style>

    <defs>
    <clipPath id="terminal-615156591-clip-terminal">
      <rect x="0" y="0" width="1585.0" height="1023.8" />
    </clipPath>
    <clipPath id="terminal-615156591-line-0">
    <rect x="0" y="1.5" width="1586" height="24.65"/>
            </clipPath>
<clipPath id="terminal-615156591-line-1">
    <rect x="0" y="25.9" width="1586" height="24.65"/>
            </clipPath>
<clipPath id="terminal-615156591-line-2">
    <rect x="0" y="50.3" width="1586" height="24.65"/>
            </clipPath>
<clipPath id="terminal-615156591-line-3">
    <rect x="0" y="74.7" width="1586" height="24.65"/>
            </clipPath>
<clipPath id="terminal-615156591-line-4">
    <rect x="0" y="99.1" width="1586" height="24.65"/>
            </clipPath>
<clipPath id="terminal-615156591-line-5">
    <rect x="0" y="123.5" width="1586" height="24.65"/>
            </clipPath>
<clipPath id="terminal-615156591-line-6">
    <rect x="0" y="147.9" width="1586" height="24.65"/>
            </clipPath>
<clipPath id="terminal-615156591-line-7">
    <rect x="0" y="172.3" width="1586" height="24.65"/>
            </clipPath>
<clipPath id="terminal-615156591-line-8">
    <rect x="0" y="196.7" width="1586" height="24.65"/>
            </clipPath>
<clipPath id="terminal-615156591-line-9">
    <rect x="0" y="221.1" width="1586" height="24.65"/>
            </clipPath>
<clipPath id="terminal-615156591-line-10">
    <rect x="0" y="245.5" width="1586" height="24.65"/>
            </clipPath>
<clipPath id="terminal-615156591-line-11">
    <rect x="0" y="269.9" width="1586" height="24.65"/>
            </clipPath>
<clipPath id="terminal-615156591-line-12">
    <rect x="0" y="294.3" width="1586" height="24.65"/>
            </clipPath>
<clipPath id="terminal-615156591-line-13">
    <rect x="0" y="318.7" width="1586" height="24.65"/>
            </clipPath>
<clipPath id="terminal-615156591-line-14">
    <rect x="0" y="343.1" width="1586" height="24.65"/>
            </clipPath>
<clipPath id="terminal-615156591-line-15">
    <rect x="0" y="367.5" width="1586" height="24.65"/>
            </clipPath>
<clipPath id="terminal-615156591-line-16">
    <rect x="0" y="391.9" width="1586" height="24.65"/>
            </clipPath>
<clipPath id="terminal-615156591-line-17">
    <rect x="0" y="416.3" width="1586" height="24.65"/>
            </clipPath>
<clipPath id="terminal-615156591-line-18">
    <rect x="0" y="440.7" width="1586" height="24.65"/>
            </clipPath>
<clipPath id="terminal-615156591-line-19">
    <rect x="0" y="465.1" width="1586" height="24.65"/>
            </clipPath>
<clipPath id="terminal-615156591-line-20">
    <rect x="0" y="489.5" width="1586" height="24.65"/>
            </clipPath>
<clipPath id="terminal-615156591-line-21">
    <rect x="0" y="513.9" width="1586" height="24.65"/>
            </clipPath>
<clipPath id="terminal-615156591-line-22">
    <rect x="0" y="538.3" width="1586" height="24.65"/>
            </clipPath>
<clipPath id="terminal-615156591-line-23">
    <rect x="0" y="562.7" width="1586" height="24.65"/>
            </clipPath>
<clipPath id="terminal-615156591-line-24">
    <rect x="0" y="587.1" width="1586" height="24.65"/>
            </clipPath>
<clipPath id="terminal-615156591-line-25">
    <rect x="0" y="611.5" width="1586" height="24.65"/>
            </clipPath>
<clipPath id="terminal-615156591-line-26">
    <rect x="0" y="635.9" width="1586" height="24.65"/>
            </clipPath>
<clipPath id="terminal-615156591-line-27">
    <rect x="0" y="660.3" width="1586" height="24.65"/>
            </clipPath>
<clipPath id="terminal-615156591-line-28">
    <rect x="0" y="684.7" width="1586" height="24.65"/>
            </clipPath>
<clipPath id="terminal-615156591-line-29">
    <rect x="0" y="709.1" width="1586" height="24.65"/>
            </clipPath>
<clipPath id="terminal-615156591-line-30">
    <rect x="0" y="733.5" width="1586" height="24.65"/>
            </clipPath>
<clipPath id="terminal-615156591-line-31">
    <rect x="0" y="757.9" width="1586" height="24.65"/>
            </clipPath>
<clipPath id="terminal-615156591-line-32">
    <rect x="0" y="782.3" width="1586" height="24.65"/>
            </clipPath>
<clipPath id="terminal-615156591-line-33">
    <rect x="0" y="806.7" width="1586" height="24.65"/>
            </clipPath>
<clipPath id="terminal-615156591-line-34">
    <rect x="0" y="831.1" width="1586" height="24.65"/>
            </clipPath>
<clipPath id="terminal-615156591-line-35">
    <rect x="0" y="855.5" width="1586" height="24.65"/>
            </clipPath>
<clipPath id="terminal-615156591-line-36">
    <rect x="0" y="879.9" width="1586" height="24.65"/>
            </clipPath>
<clipPath id="terminal-615156591-line-37">
    <rect x="0" y="904.3" width="1586" height="24.65"/>
            </clipPath>
<clipPath id="terminal-615156591-line-38">
    <rect x="0" y="928.7" width="1586" height="24.65"/>
            </clipPath>
<clipPath id="terminal-615156591-line-39">
    <rect x="0" y="953.1" width="1586" height="24.65"/>
            </clipPath>
<clipPath id="terminal-615156591-line-40">
    <rect x="0" y="977.5" width="1586" height="24.65"/>
            </clipPath>
    </defs>

    <rect fill="#292929" stroke="rgba(255,255,255,0.35)" stroke-width="1" x="1" y="1" width="1602" height="1072.8" rx="8"/><text class="terminal-615156591-title" fill="#c5c8c6" text-anchor="middle" x="801" y="27">scg&#160;monitor</text>
            <g transform="translate(26,22)">
            <circle cx="0" cy="0" r="7" fill="#ff5f57"/>
            <circle cx="22" cy="0" r="7" fill="#febc2e"/>
            <circle cx="44" cy="0" r="7" fill="#28c840"/>
            </g>
        
    <g transform="translate(9, 41)" clip-path="url(#terminal-615156591-clip-terminal)">
    <rect fill="#242f38" x="0" y="1.5" width="12.2" height="24.65" shape-rendering="crispEdges"/><rect fill="#242f38" x="12.2" y="1.5" width="12.2" height="24.65" shape-rendering="crispEdges"/><rect fill="#242f38" x="24.4" y="1.5" width="61" height="24.65" shape-rendering="crispEdges"/><rect fill="#242f38" x="85.4" y="1.5" width="12.2" height="24.65" shape-rendering="crispEdges"/><rect fill="#242f38" x="97.6" y="1.5" width="488" height="24.65" shape-rendering="crispEdges"/><rect fill="#242f38" x="585.6" y="1.5" width="378.2" height="24.65" shape-rendering="crispEdges"/><rect fill="#242f38" x="963.8" y="1.5" width="500.2" height="24.65" shape-rendering="crispEdges"/><rect fill="#242f38" x="1464" y="1.5" width="12.2" height="24.65" shape-rendering="crispEdges"/><rect fill="#242f38" x="1476.2" y="1.5" width="0" height="24.65" shape-rendering="crispEdges"/><rect fill="#242f38" x="1476.2" y="1.5" width="97.6" height="24.65" shape-rendering="crispEdges"/><rect fill="#242f38" x="1573.8" y="1.5" width="12.2" height="24.65" shape-rendering="crispEdges"/><rect fill="#121212" x="0" y="25.9" width="97.6" height="24.65" shape-rendering="crispEdges"/><rect fill="#121212" x="97.6" y="25.9" width="549" height="24.65" shape-rendering="crispEdges"/><rect fill="#121212" x="646.6" y="25.9" width="573.4" height="24.65" shape-rendering="crispEdges"/><rect fill="#121212" x="1220" y="25.9" width="73.2" height="24.65" shape-rendering="crispEdges"/><rect fill="#121212" x="1293.2" y="25.9" width="97.6" height="24.65" shape-rendering="crispEdges"/><rect fill="#121212" x="1390.8" y="25.9" width="195.2" height="24.65" shape-rendering="crispEdges"/><rect fill="#2d3740" x="0" y="50.3" width="122" height="24.65" shape-rendering="crispEdges"/><rect fill="#2d3740" x="122" y="50.3" width="85.4" height="24.65" shape-rendering="crispEdges"/><rect fill="#2d3740" x="207.4" y="50.3" width="158.6" height="24.65" shape-rendering="crispEdges"/><rect fill="#2d3740" x="366" y="50.3" width="280.6" height="24.65" shape-rendering="crispEdges"/><rect fill="#242f38" x="646.6" y="50.3" width="122" height="24.65" shape-rendering="crispEdges"/><rect fill="#242f38" x="768.6" y="50.3" width="122" height="24.65" shape-rendering="crispEdges"/><rect fill="#242f38" x="890.6" y="50.3" width="109.8" height="24.65" shape-rendering="crispEdges"/><rect fill="#242f38" x="1000.4" y="50.3" width="292.8" height="24.65" shape-rendering="crispEdges"/><rect fill="#242f38" x="1293.2" y="50.3" width="146.4" height="24.65" shape-rendering="crispEdges"/><rect fill="#242f38" x="1439.6" y="50.3" width="97.6" height="24.65" shape-rendering="crispEdges"/><rect fill="#222a31" x="1537.2" y="50.3" width="48.8" height="24.65" shape-rendering="crispEdges"/><rect fill="#0178d4" x="0" y="74.7" width="122" height="24.65" shape-rendering="crispEdges"/><rect fill="#0178d4" x="122" y="74.7" width="85.4" height="24.65" shape-rendering="crispEdges"/><rect fill="#0178d4" x="207.4" y="74.7" width="158.6" height="24.65" shape-rendering="crispEdges"/><rect fill="#0178d4" x="366" y="74.7" width="280.6" height="24.65" shape-rendering="crispEdges"/><rect fill="#153854" x="646.6" y="74.7" width="122" height="24.65" shape-rendering="crispEdges"/><rect fill="#153854" x="768.6" y="74.7" width="122" height="24.65" shape-rendering="crispEdges"/><rect fill="#153854" x="890.6" y="74.7" width="12.2" height="24.65" shape-rendering="crispEdges"/><rect fill="#153854" x="902.8" y="74.7" width="73.2" height="24.65" shape-rendering="crispEdges"/><rect fill="#153854" x="976" y="74.7" width="24.4" height="24.65" shape-rendering="crispEdges"/><rect fill="#153854" x="1000.4" y="74.7" width="292.8" height="24.65" shape-rendering="crispEdges"/><rect fill="#153854" x="1293.2" y="74.7" width="146.4" height="24.65" shape-rendering="crispEdges"/><rect fill="#1e1e1e" x="1439.6" y="74.7" width="97.6" height="24.65" shape-rendering="crispEdges"/><rect fill="#1e1e1e" x="1537.2" y="74.7" width="48.8" height="24.65" shape-rendering="crispEdges"/><rect fill="#272727" x="0" y="99.1" width="122" height="24.65" shape-rendering="crispEdges"/><rect fill="#272727" x="122" y="99.1" width="85.4" height="24.65" shape-rendering="crispEdges"/><rect fill="#272727" x="207.4" y="99.1" width="158.6" height="24.65" shape-rendering="crispEdges"/><rect fill="#272727" x="366" y="99.1" width="280.6" height="24.65" shape-rendering="crispEdges"/><rect fill="#1e1e1e" x="646.6" y="99.1" width="122" height="24.65" shape-rendering="crispEdges"/><rect fill="#1e1e1e" x="768.6" y="99.1" width="122" height="24.65" shape-rendering="crispEdges"/><rect fill="#1e1e1e" x="890.6" y="99.1" width="12.2" height="24.65" shape-rendering="crispEdges"/><rect fill="#1e1e1e" x="902.8" y="99.1" width="73.2" height="24.65" shape-rendering="crispEdges"/><rect fill="#1e1e1e" x="976" y="99.1" width="24.4" height="24.65" shape-rendering="crispEdges"/><rect fill="#1e1e1e" x="1000.4" y="99.1" width="292.8" height="24.65" shape-rendering="crispEdges"/><rect fill="#1e1e1e" x="1293.2" y="99.1" width="146.4" height="24.65" shape-rendering="crispEdges"/><rect fill="#1e1e1e" x="1439.6" y="99.1" width="97.6" height="24.65" shape-rendering="crispEdges"/><rect fill="#1e1e1e" x="1537.2" y="99.1" width="48.8" height="24.65" shape-rendering="crispEdges"/><rect fill="#121212" x="0" y="123.5" width="646.6" height="24.65" shape-rendering="crispEdges"/><rect fill="#1e1e1e" x="646.6" y="123.5" width="122" height="24.65" shape-rendering="crispEdges"/><rect fill="#1e1e1e" x="768.6" y="123.5" width="122" height="24.65" shape-rendering="crispEdges"/><rect fill="#1e1e1e" x="890.6" y="123.5" width="12.2" height="24.65" shape-rendering="crispEdges"/><rect fill="#1e1e1e" x="902.8" y="123.5" width="85.4" height="24.65" shape-rendering="crispEdges"/><rect fill="#1e1e1e" x="988.2" y="123.5" width="12.2" height="24.65" shape-rendering="crispEdges"/><rect fill="#1e1e1e" x="1000.4" y="123.5" width="292.8" height="24.65" shape-rendering="crispEdges"/><rect fill="#121212" x="1293.2" y="123.5" width="292.8" height="24.65" shape-rendering="crispEdges"/><rect fill="#121212" x="0" y="147.9" width="646.6" height="24.65" shape-rendering="crispEdges"/><rect fill="#1e1e1e" x="646.6" y="147.9" width="122" height="24.65" shape-rendering="crispEdges"/><rect fill="#1e1e1e" x="768.6" y="147.9" width="122" height="24.65" shape-rendering="crispEdges"/><rect fill="#1e1e1e" x="890.6" y="147.9" width="12.2" height="24.65" shape-rendering="crispEdges"/><rect fill="#1e1e1e" x="902.8" y="147.9" width="85.4" height="24.65" shape-rendering="crispEdges"/><rect fill="#1e1e1e" x="988.2" y="147.9" width="12.2" height="24.65" shape-rendering="crispEdges"/><rect fill="#1e1e1e" x="1000.4" y="147.9" width="292.8" height="24.65" shape-rendering="crispEdges"/><rect fill="#121212" x="1293.2" y="147.9" width="292.8" height="24.65" shape-rendering="crispEdges"/><rect fill="#121212" x="0" y="172.3" width="646.6" height="24.65" shape-rendering="crispEdges"/><rect fill="#003054" x="646.6" y="172.3" width="12.2" height="24.65" shape-rendering="crispEdges"/><rect fill="#003054" x="658.8" y="172.3" width="12.2" height="24.65" shape-rendering="crispEdges"/><rect fill="#003054" x="671" y="172.3" width="12.2" height="24.65" shape-rendering="crispEdges"/><rect fill="#003054" x="683.2" y="172.3" width="12.2" height="24.65" shape-rendering="crispEdges"/><rect fill="#003054" x="695.4" y="172.3" width="12.2" height="24.65" shape-rendering="crispEdges"/><rect fill="#003054" x="707.6" y="172.3" width="12.2" height="24.65" shape-rendering="crispEdges"/><rect fill="#003054" x="719.8" y="172.3" width="12.2" height="24.65" shape-rendering="crispEdges"/><rect fill="#003054" x="732" y="172.3" width="12.2" height="24.65" shape-rendering="crispEdges"/><rect fill="#003054" x="744.2" y="172.3" width="12.2" height="24.65" shape-rendering="crispEdges"/><rect fill="#003054" x="756.4" y="172.3" width="12.2" height="24.65" shape-rendering="crispEdges"/><rect fill="#003054" x="768.6" y="172.3" width="12.2" height="24.65" shape-rendering="crispEdges"/><rect fill="#000000" x="780.8" y="172.3" width="12.2" height="24.65" shape-rendering="crispEdges"/><rect fill="#000000" x="793" y="172.3" width="12.2" height="24.65" shape-rendering="crispEdges"/><rect fill="#000000" x="805.2" y="172.3" width="12.2" height="24.65" shape-rendering="crispEdges"/><rect fill="#000000" x="817.4" y="172.3" width="12.2" height="24.65" shape-rendering="crispEdges"/><rect fill="#000000" x="829.6" y="172.3" width="12.2" height="24.65" shape-rendering="crispEdges"/><rect fill="#000000" x="841.8" y="172.3" width="12.2" height="24.65" shape-rendering="crispEdges"/><rect fill="#000000" x="854" y="172.3" width="12.2" height="24.65" shape-rendering="crispEdges"/><rect fill="#000000" x="866.2" y="172.3" width="12.2" height="24.65" shape-rendering="crispEdges"/><rect fill="#000000" x="878.4" y="172.3" width="12.2" height="24.65" shape-rendering="crispEdges"/><rect fill="#000000" x="890.6" y="172.3" width="12.2" height="24.65" shape-rendering="crispEdges"/><rect fill="#000000" x="902.8" y="172.3" width="12.2" height="24.65" shape-rendering="crispEdges"/><rect fill="#000000" x="915" y="172.3" width="12.2" height="24.65" shape-rendering="crispEdges"/><rect fill="#000000" x="927.2" y="172.3" width="12.2" height="24.65" shape-rendering="crispEdges"/><rect fill="#000000" x="939.4" y="172.3" width="12.2" height="24.65" shape-rendering="crispEdges"/><rect fill="#000000" x="951.6" y="172.3" width="12.2" height="24.65" shape-rendering="crispEdges"/><rect fill="#000000" x="963.8" y="172.3" width="12.2" height="24.65" shape-rendering="crispEdges"/><rect fill="#000000" x="976" y="172.3" width="12.2" height="24.65" shape-rendering="crispEdges"/><rect fill="#000000" x="988.2" y="172.3" width="12.2" height="24.65" shape-rendering="crispEdges"/><rect fill="#000000" x="1000.4" y="172.3" width="12.2" height="24.65" shape-rendering="crispEdges"/><rect fill="#000000" x="1012.6" y="172.3" width="12.2" height="24.65" shape-rendering="crispEdges"/><rect fill="#000000" x="1024.8" y="172.3" width="12.2" height="24.65" shape-rendering="crispEdges"/><rect fill="#000000" x="1037" y="172.3" width="12.2" height="24.65" shape-rendering="crispEdges"/><rect fill="#000000" x="1049.2" y="172.3" width="12.2" height="24.65" shape-rendering="crispEdges"/><rect fill="#000000" x="1061.4" y="172.3" width="12.2" height="24.65" shape-rendering="crispEdges"/><rect fill="#000000" x="1073.6" y="172.3" width="12.2" height="24.65" shape-rendering="crispEdges"/><rect fill="#000000" x="1085.8" y="172.3" width="12.2" height="24.65" shape-rendering="crispEdges"/><rect fill="#000000" x="1098" y="172.3" width="12.2" height="24.65" shape-rendering="crispEdges"/><rect fill="#000000" x="1110.2" y="172.3" width="12.2" height="24.65" shape-rendering="crispEdges"/><rect fill="#000000" x="1122.4" y="172.3" width="12.2" height="24.65" shape-rendering="crispEdges"/><rect fill="#000000" x="1134.6" y="172.3" width="12.2" height="24.65" shape-rendering="crispEdges"/><rect fill="#000000" x="1146.8" y="172.3" width="12.2" height="24.65" shape-rendering="crispEdges"/><rect fill="#000000" x="1159" y="172.3" width="12.2" height="24.65" shape-rendering="crispEdges"/><rect fill="#000000" x="1171.2" y="172.3" width="12.2" height="24.65" shape-rendering="crispEdges"/><rect fill="#000000" x="1183.4" y="172.3" width="12.2" height="24.65" shape-rendering="crispEdges"/><rect fill="#000000" x="1195.6" y="172.3" width="12.2" height="24.65" shape-rendering="crispEdges"/><rect fill="#000000" x="1207.8" y="172.3" width="12.2" height="24.65" shape-rendering="crispEdges"/><rect fill="#000000" x="1220" y="172.3" width="12.2" height="24.65" shape-rendering="crispEdges"/><rect fill="#000000" x="1232.2" y="172.3" width="12.2" height="24.65" shape-rendering="crispEdges"/><rect fill="#000000" x="1244.4" y="172.3" width="12.2" height="24.65" shape-rendering="crispEdges"/><rect fill="#000000" x="1256.6" y="172.3" width="12.2" height="24.65" shape-rendering="crispEdges"/><rect fill="#000000" x="1268.8" y="172.3" width="12.2" height="24.65" shape-rendering="crispEdges"/><rect fill="#000000" x="1281" y="172.3" width="12.2" height="24.65" shape-rendering="crispEdges"/><rect fill="#121212" x="1293.2" y="172.3" width="292.8" height="24.65" shape-rendering="crispEdges"/><rect fill="#121212" x="0" y="196.7" width="646.6" height="24.65" shape-rendering="crispEdges"/><rect fill="#121212" x="646.6" y="196.7" width="646.6" height="24.65" shape-rendering="crispEdges"/><rect fill="#121212" x="1293.2" y="196.7" width="292.8" height="24.65" shape-rendering="crispEdges"/><rect fill="#121212" x="0" y="221.1" width="646.6" height="24.65" shape-rendering="crispEdges"/><rect fill="#121212" x="646.6" y="221.1" width="646.6" height="24.65" shape-rendering="crispEdges"/><rect fill="#121212" x="1293.2" y="221.1" width="292.8" height="24.65" shape-rendering="crispEdges"/><rect fill="#121212" x="0" y="245.5" width="646.6" height="24.65" shape-rendering="crispEdges"/><rect fill="#121212" x="646.6" y="245.5" width="646.6" height="24.65" shape-rendering="crispEdges"/><rect fill="#121212" x="1293.2" y="245.5" width="292.8" height="24.65" shape-rendering="crispEdges"/><rect fill="#121212" x="0" y="269.9" width="646.6" height="24.65" shape-rendering="crispEdges"/><rect fill="#121212" x="646.6" y="269.9" width="646.6" height="24.65" shape-rendering="crispEdges"/><rect fill="#121212" x="1293.2" y="269.9" width="292.8" height="24.65" shape-rendering="crispEdges"/><rect fill="#121212" x="0" y="294.3" width="646.6" height="24.65" shape-rendering="crispEdges"/><rect fill="#121212" x="646.6" y="294.3" width="646.6" height="24.65" shape-rendering="crispEdges"/><rect fill="#121212" x="1293.2" y="294.3" width="292.8" height="24.65" shape-rendering="crispEdges"/><rect fill="#121212" x="0" y="318.7" width="646.6" height="24.65" shape-rendering="crispEdges"/><rect fill="#121212" x="646.6" y="318.7" width="646.6" height="24.65" shape-rendering="crispEdges"/><rect fill="#121212" x="1293.2" y="318.7" width="292.8" height="24.65" shape-rendering="crispEdges"/><rect fill="#121212" x="0" y="343.1" width="646.6" height="24.65" shape-rendering="crispEdges"/><rect fill="#121212" x="646.6" y="343.1" width="646.6" height="24.65" shape-rendering="crispEdges"/><rect fill="#121212" x="1293.2" y="343.1" width="292.8" height="24.65" shape-rendering="crispEdges"/><rect fill="#121212" x="0" y="367.5" width="646.6" height="24.65" shape-rendering="crispEdges"/><rect fill="#121212" x="646.6" y="367.5" width="646.6" height="24.65" shape-rendering="crispEdges"/><rect fill="#121212" x="1293.2" y="367.5" width="292.8" height="24.65" shape-rendering="crispEdges"/><rect fill="#121212" x="0" y="391.9" width="646.6" height="24.65" shape-rendering="crispEdges"/><rect fill="#121212" x="646.6" y="391.9" width="646.6" height="24.65" shape-rendering="crispEdges"/><rect fill="#121212" x="1293.2" y="391.9" width="292.8" height="24.65" shape-rendering="crispEdges"/><rect fill="#121212" x="0" y="416.3" width="646.6" height="24.65" shape-rendering="crispEdges"/><rect fill="#121212" x="646.6" y="416.3" width="646.6" height="24.65" shape-rendering="crispEdges"/><rect fill="#121212" x="1293.2" y="416.3" width="292.8" height="24.65" shape-rendering="crispEdges"/><rect fill="#121212" x="0" y="440.7" width="646.6" height="24.65" shape-rendering="crispEdges"/><rect fill="#121212" x="646.6" y="440.7" width="646.6" height="24.65" shape-rendering="crispEdges"/><rect fill="#121212" x="1293.2" y="440.7" width="292.8" height="24.65" shape-rendering="crispEdges"/><rect fill="#121212" x="0" y="465.1" width="646.6" height="24.65" shape-rendering="crispEdges"/><rect fill="#121212" x="646.6" y="465.1" width="646.6" height="24.65" shape-rendering="crispEdges"/><rect fill="#121212" x="1293.2" y="465.1" width="292.8" height="24.65" shape-rendering="crispEdges"/><rect fill="#121212" x="0" y="489.5" width="646.6" height="24.65" shape-rendering="crispEdges"/><rect fill="#121212" x="646.6" y="489.5" width="646.6" height="24.65" shape-rendering="crispEdges"/><rect fill="#121212" x="1293.2" y="489.5" width="292.8" height="24.65" shape-rendering="crispEdges"/><rect fill="#121212" x="0" y="513.9" width="646.6" height="24.65" shape-rendering="crispEdges"/><rect fill="#121212" x="646.6" y="513.9" width="646.6" height="24.65" shape-rendering="crispEdges"/><rect fill="#121212" x="1293.2" y="513.9" width="292.8" height="24.65" shape-rendering="crispEdges"/><rect fill="#121212" x="0" y="538.3" width="646.6" height="24.65" shape-rendering="crispEdges"/><rect fill="#121212" x="646.6" y="538.3" width="646.6" height="24.65" shape-rendering="crispEdges"/><rect fill="#121212" x="1293.2" y="538.3" width="292.8" height="24.65" shape-rendering="crispEdges"/><rect fill="#121212" x="0" y="562.7" width="646.6" height="24.65" shape-rendering="crispEdges"/><rect fill="#121212" x="646.6" y="562.7" width="646.6" height="24.65" shape-rendering="crispEdges"/><rect fill="#121212" x="1293.2" y="562.7" width="292.8" height="24.65" shape-rendering="crispEdges"/><rect fill="#121212" x="0" y="587.1" width="646.6" height="24.65" shape-rendering="crispEdges"/><rect fill="#121212" x="646.6" y="587.1" width="646.6" height="24.65" shape-rendering="crispEdges"/><rect fill="#121212" x="1293.2" y="587.1" width="292.8" height="24.65" shape-rendering="crispEdges"/><rect fill="#121212" x="0" y="611.5" width="549" height="24.65" shape-rendering="crispEdges"/><rect fill="#121212" x="549" y="611.5" width="1037" height="24.65" shape-rendering="crispEdges"/><rect fill="#242f38" x="0" y="635.9" width="427" height="24.65" shape-rendering="crispEdges"/><rect fill="#242f38" x="427" y="635.9" width="109.8" height="24.65" shape-rendering="crispEdges"/><rect fill="#242f38" x="536.8" y="635.9" width="170.8" height="24.65" shape-rendering="crispEdges"/><rect fill="#242f38" x="707.6" y="635.9" width="878.4" height="24.65" shape-rendering="crispEdges"/><rect fill="#153854" x="0" y="660.3" width="427" height="24.65" shape-rendering="crispEdges"/><rect fill="#153854" x="427" y="660.3" width="109.8" height="24.65" shape-rendering="crispEdges"/><rect fill="#153854" x="536.8" y="660.3" width="170.8" height="24.65" shape-rendering="crispEdges"/><rect fill="#153854" x="707.6" y="660.3" width="878.4" height="24.65" shape-rendering="crispEdges"/><rect fill="#1e1e1e" x="0" y="684.7" width="427" height="24.65" shape-rendering="crispEdges"/><rect fill="#1e1e1e" x="427" y="684.7" width="109.8" height="24.65" shape-rendering="crispEdges"/><rect fill="#1e1e1e" x="536.8" y="684.7" width="170.8" height="24.65" shape-rendering="crispEdges"/><rect fill="#1e1e1e" x="707.6" y="684.7" width="878.4" height="24.65" shape-rendering="crispEdges"/><rect fill="#121212" x="0" y="709.1" width="1586" height="24.65" shape-rendering="crispEdges"/><rect fill="#121212" x="0" y="733.5" width="1586" height="24.65" shape-rendering="crispEdges"/><rect fill="#121212" x="0" y="757.9" width="1586" height="24.65" shape-rendering="crispEdges"/><rect fill="#121212" x="0" y="782.3" width="1586" height="24.65" shape-rendering="crispEdges"/><rect fill="#121212" x="0" y="806.7" width="1586" height="24.65" shape-rendering="crispEdges"/><rect fill="#121212" x="0" y="831.1" width="1586" height="24.65" shape-rendering="crispEdges"/><rect fill="#121212" x="0" y="855.5" width="1586" height="24.65" shape-rendering="crispEdges"/><rect fill="#121212" x="0" y="879.9" width="1586" height="24.65" shape-rendering="crispEdges"/><rect fill="#121212" x="0" y="904.3" width="1586" height="24.65" shape-rendering="crispEdges"/><rect fill="#121212" x="0" y="928.7" width="1586" height="24.65" shape-rendering="crispEdges"/><rect fill="#121212" x="0" y="953.1" width="1586" height="24.65" shape-rendering="crispEdges"/><rect fill="#121212" x="0" y="977.5" width="1586" height="24.65" shape-rendering="crispEdges"/><rect fill="#242f38" x="0" y="1001.9" width="36.6" height="24.65" shape-rendering="crispEdges"/><rect fill="#242f38" x="36.6" y="1001.9" width="305" height="24.65" shape-rendering="crispEdges"/><rect fill="#242f38" x="341.6" y="1001.9" width="36.6" height="24.65" shape-rendering="crispEdges"/><rect fill="#242f38" x="378.2" y="1001.9" width="341.6" height="24.65" shape-rendering="crispEdges"/><rect fill="#242f38" x="719.8" y="1001.9" width="719.8" height="24.65" shape-rendering="crispEdges"/><rect fill="#242f38" x="1439.6" y="1001.9" width="12.2" height="24.65" shape-rendering="crispEdges"/><rect fill="#242f38" x="1451.8" y="1001.9" width="24.4" height="24.65" shape-rendering="crispEdges"/><rect fill="#242f38" x="1476.2" y="1001.9" width="97.6" height="24.65" shape-rendering="crispEdges"/><rect fill="#242f38" x="1573.8" y="1001.9" width="12.2" height="24.65" shape-rendering="crispEdges"/>
    <g class="terminal-615156591-matrix">
    <text class="terminal-615156591-r2" x="12.2" y="20" textLength="12.2" clip-path="url(#terminal-615156591-line-0)">⭘</text><text class="terminal-615156591-r2" x="585.6" y="20" textLength="378.2" clip-path="url(#terminal-615156591-line-0)">scg&#160;monitor&#160;—&#160;2&#160;pending&#160;reviews</text><text class="terminal-615156591-r1" x="1586" y="20" textLength="12.2" clip-path="url(#terminal-615156591-line-0)">
</text><text class="terminal-615156591-r2" x="0" y="44.4" textLength="97.6" clip-path="url(#terminal-615156591-line-1)">Sessions</text><text class="terminal-615156591-r2" x="646.6" y="44.4" textLength="573.4" clip-path="url(#terminal-615156591-line-1)">Block&#160;events&#160;(press&#160;&#x27;a&#x27;&#160;to&#160;toggle&#160;all-sessions)</text><text class="terminal-615156591-r2" x="1293.2" y="44.4" textLength="97.6" clip-path="url(#terminal-615156591-line-1)">Scanners</text><text class="terminal-615156591-r1" x="1586" y="44.4" textLength="12.2" clip-path="url(#terminal-615156591-line-1)">
</text><text class="terminal-615156591-r3" x="0" y="68.8" textLength="122" clip-path="url(#terminal-615156591-line-2)">&#160;Session&#160;&#160;</text><text class="terminal-615156591-r3" x="122" y="68.8" textLength="85.4" clip-path="url(#terminal-615156591-line-2)">&#160;Trust&#160;</text><text class="terminal-615156591-r3" x="207.4" y="68.8" textLength="158.6" clip-path="url(#terminal-615156591-line-2)">&#160;Sensitivity&#160;</text><text class="terminal-615156591-r3" x="646.6" y="68.8" textLength="122" clip-path="url(#terminal-615156591-line-2)">&#160;Session&#160;&#160;</text><text class="terminal-615156591-r3" x="768.6" y="68.8" textLength="122" clip-path="url(#terminal-615156591-line-2)">&#160;Tool&#160;&#160;&#160;&#160;&#160;</text><text class="terminal-615156591-r3" x="890.6" y="68.8" textLength="109.8" clip-path="url(#terminal-615156591-line-2)">&#160;Tag&#160;&#160;&#160;&#160;&#160;</text><text class="terminal-615156591-r3" x="1000.4" y="68.8" textLength="292.8" clip-path="url(#terminal-615156591-line-2)">&#160;Reason&#160;&#160;&#160;&#160;&#160;&#160;&#160;&#160;&#160;&#160;&#160;&#160;&#160;&#160;&#160;&#160;&#160;</text><text class="terminal-615156591-r3" x="1293.2" y="68.8" textLength="146.4" clip-path="url(#terminal-615156591-line-2)">&#160;Scanner&#160;&#160;&#160;&#160;</text><text class="terminal-615156591-r3" x="1439.6" y="68.8" textLength="97.6" clip-path="url(#terminal-615156591-line-2)">&#160;Status&#160;</text><text class="terminal-615156591-r1" x="1586" y="68.8" textLength="12.2" clip-path="url(#terminal-615156591-line-2)">
</text><text class="terminal-615156591-r4" x="0" y="93.2" textLength="122" clip-path="url(#terminal-615156591-line-3)">&#160;f7e8d9c0&#160;</text><text class="terminal-615156591-r4" x="122" y="93.2" textLength="85.4" clip-path="url(#terminal-615156591-line-3)">&#160;high&#160;&#160;</text><text class="terminal-615156591-r4" x="207.4" y="93.2" textLength="158.6" clip-path="url(#terminal-615156591-line-3)">&#160;public&#160;&#160;&#160;&#160;&#160;&#160;</text><text class="terminal-615156591-r2" x="646.6" y="93.2" textLength="122" clip-path="url(#terminal-615156591-line-3)">&#160;a1b2c3d4&#160;</text><text class="terminal-615156591-r2" x="768.6" y="93.2" textLength="122" clip-path="url(#terminal-615156591-line-3)">&#160;WebFetch&#160;</text><text class="terminal-615156591-r3" x="902.8" y="93.2" textLength="73.2" clip-path="url(#terminal-615156591-line-3)">[DENY]</text><text class="terminal-615156591-r2" x="1000.4" y="93.2" textLength="292.8" clip-path="url(#terminal-615156591-line-3)">&#160;Blocked:&#160;https://known-</text><text class="terminal-615156591-r2" x="1293.2" y="93.2" textLength="146.4" clip-path="url(#terminal-615156591-line-3)">&#160;secrets&#160;&#160;&#160;&#160;</text><text class="terminal-615156591-r2" x="1439.6" y="93.2" textLength="97.6" clip-path="url(#terminal-615156591-line-3)">&#160;idle&#160;&#160;&#160;</text><text class="terminal-615156591-r1" x="1586" y="93.2" textLength="12.2" clip-path="url(#terminal-615156591-line-3)">
</text><text class="terminal-615156591-r2" x="0" y="117.6" textLength="122" clip-path="url(#terminal-615156591-line-4)">&#160;a1b2c3d4&#160;</text><text class="terminal-615156591-r2" x="122" y="117.6" textLength="85.4" clip-path="url(#terminal-615156591-line-4)">&#160;low&#160;&#160;&#160;</text><text class="terminal-615156591-r2" x="207.4" y="117.6" textLength="158.6" clip-path="url(#terminal-615156591-line-4)">&#160;internal&#160;&#160;&#160;&#160;</text><text class="terminal-615156591-r2" x="646.6" y="117.6" textLength="122" clip-path="url(#terminal-615156591-line-4)">&#160;a1b2c3d4&#160;</text><text class="terminal-615156591-r2" x="768.6" y="117.6" textLength="122" clip-path="url(#terminal-615156591-line-4)">&#160;WebFetch&#160;</text><text class="terminal-615156591-r5" x="902.8" y="117.6" textLength="73.2" clip-path="url(#terminal-615156591-line-4)">[WAIT]</text><text class="terminal-615156591-r2" x="1000.4" y="117.6" textLength="292.8" clip-path="url(#terminal-615156591-line-4)">&#160;Blocked:&#160;https://unknow</text><text class="terminal-615156591-r2" x="1293.2" y="117.6" textLength="146.4" clip-path="url(#terminal-615156591-line-4)">&#160;reputation&#160;</text><text class="terminal-615156591-r2" x="1439.6" y="117.6" textLength="97.6" clip-path="url(#terminal-615156591-line-4)">&#160;idle&#160;&#160;&#160;</text><text class="terminal-615156591-r1" x="1586" y="117.6" textLength="12.2" clip-path="url(#terminal-615156591-line-4)">
</text><text class="terminal-615156591-r2" x="646.6" y="142" textLength="122" clip-path="url(#terminal-615156591-line-5)">&#160;a1b2c3d4&#160;</text><text class="terminal-615156591-r2" x="768.6" y="142" textLength="122" clip-path="url(#terminal-615156591-line-5)">&#160;Bash&#160;&#160;&#160;&#160;&#160;</text><text class="terminal-615156591-r6" x="902.8" y="142" textLength="85.4" clip-path="url(#terminal-615156591-line-5)">[ALLOW]</text><text class="terminal-615156591-r1" x="1586" y="142" textLength="12.2" clip-path="url(#terminal-615156591-line-5)">
</text><text class="terminal-615156591-r2" x="646.6" y="166.4" textLength="122" clip-path="url(#terminal-615156591-line-6)">&#160;a1b2c3d4&#160;</text><text class="terminal-615156591-r2" x="768.6" y="166.4" textLength="122" clip-path="url(#terminal-615156591-line-6)">&#160;Read&#160;&#160;&#160;&#160;&#160;</text><text class="terminal-615156591-r6" x="902.8" y="166.4" textLength="85.4" clip-path="url(#terminal-615156591-line-6)">[ALLOW]</text><text class="terminal-615156591-r1" x="1586" y="166.4" textLength="12.2" clip-path="url(#terminal-615156591-line-6)">
</text><text class="terminal-615156591-r8" x="780.8" y="190.8" textLength="12.2" clip-path="url(#terminal-615156591-line-7)">▌</text><text class="terminal-615156591-r1" x="1586" y="190.8" textLength="12.2" clip-path="url(#terminal-615156591-line-7)">
</text><text class="terminal-615156591-r1" x="1586" y="215.2" textLength="12.2" clip-path="url(#terminal-615156591-line-8)">
</text><text class="terminal-615156591-r1" x="1586" y="239.6" textLength="12.2" clip-path="url(#terminal-615156591-line-9)">
</text><text class="terminal-615156591-r1" x="1586" y="264" textLength="12.2" clip-path="url(#terminal-615156591-line-10)">
</text><text class="terminal-615156591-r1" x="1586" y="288.4" textLength="12.2" clip-path="url(#terminal-615156591-line-11)">
</text><text class="terminal-615156591-r1" x="1586" y="312.8" textLength="12.2" clip-path="url(#terminal-615156591-line-12)">
</text><text class="terminal-615156591-r1" x="1586" y="337.2" textLength="12.2" clip-path="url(#terminal-615156591-line-13)">
</text><text class="terminal-615156591-r1" x="1586" y="361.6" textLength="12.2" clip-path="url(#terminal-615156591-line-14)">
</text><text class="terminal-615156591-r1" x="1586" y="386" textLength="12.2" clip-path="url(#terminal-615156591-line-15)">
</text><text class="terminal-615156591-r1" x="1586" y="410.4" textLength="12.2" clip-path="url(#terminal-615156591-line-16)">
</text><text class="terminal-615156591-r1" x="1586" y="434.8" textLength="12.2" clip-path="url(#terminal-615156591-line-17)">
</text><text class="terminal-615156591-r1" x="1586" y="459.2" textLength="12.2" clip-path="url(#terminal-615156591-line-18)">
</text><text class="terminal-615156591-r1" x="1586" y="483.6" textLength="12.2" clip-path="url(#terminal-615156591-line-19)">
</text><text class="terminal-615156591-r1" x="1586" y="508" textLength="12.2" clip-path="url(#terminal-615156591-line-20)">
</text><text class="terminal-615156591-r1" x="1586" y="532.4" textLength="12.2" clip-path="url(#terminal-615156591-line-21)">
</text><text class="terminal-615156591-r1" x="1586" y="556.8" textLength="12.2" clip-path="url(#terminal-615156591-line-22)">
</text><text class="terminal-615156591-r1" x="1586" y="581.2" textLength="12.2" clip-path="url(#terminal-615156591-line-23)">
</text><text class="terminal-615156591-r1" x="1586" y="605.6" textLength="12.2" clip-path="url(#terminal-615156591-line-24)">
</text><text class="terminal-615156591-r2" x="0" y="630" textLength="549" clip-path="url(#terminal-615156591-line-25)">Resource&#160;cache&#160;(recently&#160;scanned&#160;files/hosts)</text><text class="terminal-615156591-r1" x="1586" y="630" textLength="12.2" clip-path="url(#terminal-615156591-line-25)">
</text><text class="terminal-615156591-r3" x="0" y="654.4" textLength="427" clip-path="url(#terminal-615156591-line-26)">&#160;Resource&#160;&#160;&#160;&#160;&#160;&#160;&#160;&#160;&#160;&#160;&#160;&#160;&#160;&#160;&#160;&#160;&#160;&#160;&#160;&#160;&#160;&#160;&#160;&#160;&#160;&#160;</text><text class="terminal-615156591-r3" x="427" y="654.4" textLength="109.8" clip-path="url(#terminal-615156591-line-26)">&#160;Label&#160;&#160;&#160;</text><text class="terminal-615156591-r3" x="536.8" y="654.4" textLength="170.8" clip-path="url(#terminal-615156591-line-26)">&#160;Last&#160;Scanned&#160;</text><text class="terminal-615156591-r1" x="1586" y="654.4" textLength="12.2" clip-path="url(#terminal-615156591-line-26)">
</text><text class="terminal-615156591-r2" x="0" y="678.8" textLength="427" clip-path="url(#terminal-615156591-line-27)">&#160;https://internal-wiki.example.com&#160;</text><text class="terminal-615156591-r2" x="427" y="678.8" textLength="109.8" clip-path="url(#terminal-615156591-line-27)">&#160;trusted&#160;</text><text class="terminal-615156591-r2" x="536.8" y="678.8" textLength="170.8" clip-path="url(#terminal-615156591-line-27)">&#160;0s&#160;ago&#160;&#160;&#160;&#160;&#160;&#160;&#160;</text><text class="terminal-615156591-r1" x="1586" y="678.8" textLength="12.2" clip-path="url(#terminal-615156591-line-27)">
</text><text class="terminal-615156591-r2" x="0" y="703.2" textLength="427" clip-path="url(#terminal-615156591-line-28)">&#160;/workspace/src/app.py&#160;&#160;&#160;&#160;&#160;&#160;&#160;&#160;&#160;&#160;&#160;&#160;&#160;</text><text class="terminal-615156591-r2" x="427" y="703.2" textLength="109.8" clip-path="url(#terminal-615156591-line-28)">&#160;public&#160;&#160;</text><text class="terminal-615156591-r2" x="536.8" y="703.2" textLength="170.8" clip-path="url(#terminal-615156591-line-28)">&#160;0s&#160;ago&#160;&#160;&#160;&#160;&#160;&#160;&#160;</text><text class="terminal-615156591-r1" x="1586" y="703.2" textLength="12.2" clip-path="url(#terminal-615156591-line-28)">
</text><text class="terminal-615156591-r1" x="1586" y="727.6" textLength="12.2" clip-path="url(#terminal-615156591-line-29)">
</text><text class="terminal-615156591-r1" x="1586" y="752" textLength="12.2" clip-path="url(#terminal-615156591-line-30)">
</text><text class="terminal-615156591-r1" x="1586" y="776.4" textLength="12.2" clip-path="url(#terminal-615156591-line-31)">
</text><text class="terminal-615156591-r1" x="1586" y="800.8" textLength="12.2" clip-path="url(#terminal-615156591-line-32)">
</text><text class="terminal-615156591-r1" x="1586" y="825.2" textLength="12.2" clip-path="url(#terminal-615156591-line-33)">
</text><text class="terminal-615156591-r1" x="1586" y="849.6" textLength="12.2" clip-path="url(#terminal-615156591-line-34)">
</text><text class="terminal-615156591-r1" x="1586" y="874" textLength="12.2" clip-path="url(#terminal-615156591-line-35)">
</text><text class="terminal-615156591-r1" x="1586" y="898.4" textLength="12.2" clip-path="url(#terminal-615156591-line-36)">
</text><text class="terminal-615156591-r1" x="1586" y="922.8" textLength="12.2" clip-path="url(#terminal-615156591-line-37)">
</text><text class="terminal-615156591-r1" x="1586" y="947.2" textLength="12.2" clip-path="url(#terminal-615156591-line-38)">
</text><text class="terminal-615156591-r1" x="1586" y="971.6" textLength="12.2" clip-path="url(#terminal-615156591-line-39)">
</text><text class="terminal-615156591-r1" x="1586" y="996" textLength="12.2" clip-path="url(#terminal-615156591-line-40)">
</text><text class="terminal-615156591-r9" x="0" y="1020.4" textLength="36.6" clip-path="url(#terminal-615156591-line-41)">&#160;a&#160;</text><text class="terminal-615156591-r2" x="36.6" y="1020.4" textLength="305" clip-path="url(#terminal-615156591-line-41)">Toggle&#160;all-sessions&#160;feed&#160;</text><text class="terminal-615156591-r9" x="341.6" y="1020.4" textLength="36.6" clip-path="url(#terminal-615156591-line-41)">&#160;r&#160;</text><text class="terminal-615156591-r2" x="378.2" y="1020.4" textLength="341.6" clip-path="url(#terminal-615156591-line-41)">Review&#160;oldest&#160;pending&#160;block&#160;</text><text class="terminal-615156591-r10" x="1439.6" y="1020.4" textLength="12.2" clip-path="url(#terminal-615156591-line-41)">▏</text><text class="terminal-615156591-r9" x="1451.8" y="1020.4" textLength="24.4" clip-path="url(#terminal-615156591-line-41)">^p</text><text class="terminal-615156591-r2" x="1476.2" y="1020.4" textLength="97.6" clip-path="url(#terminal-615156591-line-41)">&#160;palette</text>
    </g>
    </g>
</svg>
