<svg class="rich-terminal" viewBox="0 0 1604 1074.8" xmlns="http://www.w3.org/2000/svg">
    <!-- Generated with Rich https://www.textualize.io -->
    <style>

    @font-face {
        font-family: "Fira Code";
        src: local("FiraCode-Regular"),
                url("https://cdnjs.cloudflare.com/ajax/libs/firacode/6.2.0/woff2/FiraCode-Regular.woff2") format("woff2"),
                url("https://cdnjs.cloudflare.com/ajax/libs/firacode/6.2.0/woff/FiraCode-Regular.woff") format("woff");
        font-style: normal;
        font-weight: 400;
    }
    @font-face {
        font-family: "Fira Code";
        src: local("FiraCode-Bold"),
                url("https://cdnjs.cloudflare.com/ajax/libs/firacode/6.2.0/woff2/FiraCode-Bold.woff2") format("woff2"),
                url("https://cdnjs.cloudflare.com/ajax/libs/firacode/6.2.0/woff/FiraCode-Bold.woff") format("woff");
        font-style: bold;
        font-weight: 700;
    }

    .terminal-1789793860-matrix {
        font-family: Fira Code, monospace;
        font-size: 20px;
        line-height: 24.4px;
        font-variant-east-asian: full-width;
    }

    .terminal-1789793860-title {
        font-size: 18px;
        font-weight: bold;
        font-family: arial;
    }

    .terminal-1789793860-r1 { fill: #c5c8c6 }
.terminal-1789793860-r2 { fill: #e0e0e0 }
.terminal-1789793860-r3 { fill: #e0e0e0;font-weight: bold }
.terminal-1789793860-r4 { fill: #ddedf9;font-weight: bold }
.terminal-1789793860-r5 { fill: #2d2d2d }
.terminal-1789793860-r6 { fill: #1e1e1e }
.terminal-1789793860-r7 { fill: #6a6a6a;font-weight: bold }
.terminal-1789793860-r8 { fill: #0d0d0d }
.terminal-1789793860-r9 { fill: #0f0f0f }
.terminal-1789793860-r10 { fill: #ffa62b;font-weight: bold }
.terminal-1789793860-r11 { fill: #495259 }
    </style>

    <defs>
    <clipPath id="terminal-1789793860-clip-terminal">
      <rect x="0" y="0" width="1585.0" height="1023.8" />
    </clipPath>
    <clipPath id="terminal-1789793860-line-0">
    <rect x="0" y="1.5" width="1586" height="24.65"/>
            </clipPath>
<clipPath id="terminal-1789793860-line-1">
    <rect x="0" y="25.9" width="1586" height="24.65"/>
            </clipPath>
<clipPath id="terminal-1789793860-line-2">
    <rect x="0" y="50.3" width="1586" height="24.65"/>
            </clipPath>
<clipPath id="terminal-1789793860-line-3">
    <rect x="0" y="74.7" width="1586" height="24.65"/>
            </clipPath>
<clipPath id="terminal-1789793860-line-4">
    <rect x="0" y="99.1" width="1586" height="24.65"/>
            </clipPath>
<clipPath id="terminal-1789793860-line-5">
    <rect x="0" y="123.5" width="1586" height="24.65"/>
            </clipPath>
<clipPath id="terminal-1789793860-line-6">
    <rect x="0" y="147.9" width="1586" height="24.65"/>
            </clipPath>
<clipPath id="terminal-1789793860-line-7">
    <rect x="0" y="172.3" width="1586" height="24.65"/>
            </clipPath>
<clipPath id="terminal-1789793860-line-8">
    <rect x="0" y="196.7" width="1586" height="24.65"/>
            </clipPath>
<clipPath id="terminal-1789793860-line-9">
    <rect x="0" y="221.1" width="1586" height="24.65"/>
            </clipPath>
<clipPath id="terminal-1789793860-line-10">
    <rect x="0" y="245.5" width="1586" height="24.65"/>
            </clipPath>
<clipPath id="terminal-1789793860-line-11">
    <rect x="0" y="269.9" width="1586" height="24.65"/>
            </clipPath>
<clipPath id="terminal-1789793860-line-12">
    <rect x="0" y="294.3" width="1586" height="24.65"/>
            </clipPath>
<clipPath id="terminal-1789793860-line-13">
    <rect x="0" y="318.7" width="1586" height="24.65"/>
            </clipPath>
<clipPath id="terminal-1789793860-line-14">
    <rect x="0" y="343.1" width="1586" height="24.65"/>
            </clipPath>
<clipPath id="terminal-1789793860-line-15">
    <rect x="0" y="367.5" width="1586" height="24.65"/>
            </clipPath>
<clipPath id="terminal-1789793860-line-16">
    <rect x="0" y="391.9" width="1586" height="24.65"/>
            </clipPath>
<clipPath id="terminal-1789793860-line-17">
    <rect x="0" y="416.3" width="1586" height="24.65"/>
            </clipPath>
<clipPath id="terminal-1789793860-line-18">
    <rect x="0" y="440.7" width="1586" height="24.65"/>
            </clipPath>
<clipPath id="terminal-1789793860-line-19">
    <rect x="0" y="465.1" width="1586" height="24.65"/>
            </clipPath>
<clipPath id="terminal-1789793860-line-20">
    <rect x="0" y="489.5" width="1586" height="24.65"/>
            </clipPath>
<clipPath id="terminal-1789793860-line-21">
    <rect x="0" y="513.9" width="1586" height="24.65"/>
            </clipPath>
<clipPath id="terminal-1789793860-line-22">
    <rect x="0" y="538.3" width="1586" height="24.65"/>
            </clipPath>
<clipPath id="terminal-1789793860-line-23">
    <rect x="0" y="562.7" width="1586" height="24.65"/>
            </clipPath>
<clipPath id="terminal-1789793860-line-24">
    <rect x="0" y="587.1" width="1586" height="24.65"/>
            </clipPath>
<clipPath id="terminal-1789793860-line-25">
    <rect x="0" y="611.5" width="1586" height="24.65"/>
            </clipPath>
<clipPath id="terminal-1789793860-line-26">
    <rect x="0" y="635.9" width="1586" height="24.65"/>
            </clipPath>
<clipPath id="terminal-1789793860-line-27">
    <rect x="0" y="660.3" width="1586" height="24.65"/>
            </clipPath>
<clipPath id="terminal-1789793860-line-28">
    <rect x="0" y="684.7" width="1586" height="24.65"/>
            </clipPath>
<clipPath id="terminal-1789793860-line-29">
    <rect x="0" y="709.1" width="1586" height="24.65"/>
            </clipPath>
<clipPath id="terminal-1789793860-line-30">
    <rect x="0" y="733.5" width="1586" height="24.65"/>
            </clipPath>
<clipPath id="terminal-1789793860-line-31">
    <rect x="0" y="757.9" width="1586" height="24.65"/>
            </clipPath>
<clipPath id="terminal-1789793860-line-32">
    <rect x="0" y="782.3" width="1586" height="24.65"/>
            </clipPath>
<clipPath id="terminal-1789793860-line-33">
    <rect x="0" y="806.7" width="1586" height="24.65"/>
            </clipPath>
<clipPath id="terminal-1789793860-line-34">
    <rect x="0" y="831.1" width="1586" height="24.65"/>
            </clipPath>
<clipPath id="terminal-1789793860-line-35">
    <rect x="0" y="855.5" width="1586" height="24.65"/>
            </clipPath>
<clipPath id="terminal-1789793860-line-36">
    <rect x="0" y="879.9" width="1586" height="24.65"/>
            </clipPath>
<clipPath id="terminal-1789793860-line-37">
    <rect x="0" y="904.3" width="1586" height="24.65"/>
            </clipPath>
<clipPath id="terminal-1789793860-line-38">
    <rect x="0" y="928.7" width="1586" height="24.65"/>
            </clipPath>
<clipPath id="terminal-1789793860-line-39">
    <rect x="0" y="953.1" width="1586" height="24.65"/>
            </clipPath>
<clipPath id="terminal-1789793860-line-40">
    <rect x="0" y="977.5" width="1586" height="24.65"/>
            </clipPath>
    </defs>

    <rect fill="#292929" stroke="rgba(255,255,255,0.35)" stroke-width="1" x="1" y="1" width="1602" height="1072.8" rx="8"/><text class="terminal-1789793860-title" fill="#c5c8c6" text-anchor="middle" x="801" y="27">scg&#160;monitor&#160;—&#160;review</text>
            <g transform="translate(26,22)">
            <circle cx="0" cy="0" r="7" fill="#ff5f57"/>
            <circle cx="22" cy="0" r="7" fill="#febc2e"/>
            <circle cx="44" cy="0" r="7" fill="#28c840"/>
            </g>
        
    <g transform="translate(9, 41)" clip-path="url(#terminal-1789793860-clip-terminal)">
    <rect fill="#242f38" x="0" y="1.5" width="12.2" height="24.65" shape-rendering="crispEdges"/><rect fill="#242f38" x="12.2" y="1.5" width="12.2" height="24.65" shape-rendering="crispEdges"/><rect fill="#242f38" x="24.4" y="1.5" width="61" height="24.65" shape-rendering="crispEdges"/><rect fill="#242f38" x="85.4" y="1.5" width="12.2" height="24.65" shape-rendering="crispEdges"/><rect fill="#242f38" x="97.6" y="1.5" width="488" height="24.65" shape-rendering="crispEdges"/><rect fill="#242f38" x="585.6" y="1.5" width="378.2" height="24.65" shape-rendering="crispEdges"/><rect fill="#242f38" x="963.8" y="1.5" width="500.2" height="24.65" shape-rendering="crispEdges"/><rect fill="#242f38" x="1464" y="1.5" width="12.2" height="24.65" shape-rendering="crispEdges"/><rect fill="#242f38" x="1476.2" y="1.5" width="0" height="24.65" shape-rendering="crispEdges"/><rect fill="#242f38" x="1476.2" y="1.5" width="97.6" height="24.65" shape-rendering="crispEdges"/><rect fill="#242f38" x="1573.8" y="1.5" width="12.2" height="24.65" shape-rendering="crispEdges"/><rect fill="#121212" x="0" y="25.9" width="439.2" height="24.65" shape-rendering="crispEdges"/><rect fill="#121212" x="439.2" y="25.9" width="1146.8" height="24.65" shape-rendering="crispEdges"/><rect fill="#121212" x="0" y="50.3" width="12.2" height="24.65" shape-rendering="crispEdges"/><rect fill="#121212" x="12.2" y="50.3" width="1573.8" height="24.65" shape-rendering="crispEdges"/><rect fill="#121212" x="0" y="74.7" width="573.4" height="24.65" shape-rendering="crispEdges"/><rect fill="#121212" x="573.4" y="74.7" width="1012.6" height="24.65" shape-rendering="crispEdges"/><rect fill="#121212" x="0" y="99.1" width="12.2" height="24.65" shape-rendering="crispEdges"/><rect fill="#121212" x="12.2" y="99.1" width="1573.8" height="24.65" shape-rendering="crispEdges"/><rect fill="#2d3740" x="0" y="123.5" width="463.6" height="24.65" shape-rendering="crispEdges"/><rect fill="#2d3740" x="463.6" y="123.5" width="73.2" height="24.65" shape-rendering="crispEdges"/><rect fill="#2d3740" x="536.8" y="123.5" width="207.4" height="24.65" shape-rendering="crispEdges"/><rect fill="#2d3740" x="744.2" y="123.5" width="122" height="24.65" shape-rendering="crispEdges"/><rect fill="#2b3339" x="866.2" y="123.5" width="719.8" height="24.65" shape-rendering="crispEdges"/><rect fill="#0178d4" x="0" y="147.9" width="463.6" height="24.65" shape-rendering="crispEdges"/><rect fill="#272727" x="463.6" y="147.9" width="73.2" height="24.65" shape-rendering="crispEdges"/><rect fill="#272727" x="536.8" y="147.9" width="207.4" height="24.65" shape-rendering="crispEdges"/><rect fill="#272727" x="744.2" y="147.9" width="122" height="24.65" shape-rendering="crispEdges"/><rect fill="#272727" x="866.2" y="147.9" width="719.8" height="24.65" shape-rendering="crispEdges"/><rect fill="#1e1e1e" x="0" y="172.3" width="195.2" height="24.65" shape-rendering="crispEdges"/><rect fill="#1e1e1e" x="195.2" y="172.3" width="195.2" height="24.65" shape-rendering="crispEdges"/><rect fill="#171717" x="390.4" y="172.3" width="195.2" height="24.65" shape-rendering="crispEdges"/><rect fill="#121212" x="585.6" y="172.3" width="1000.4" height="24.65" shape-rendering="crispEdges"/><rect fill="#1e1e1e" x="0" y="196.7" width="48.8" height="24.65" shape-rendering="crispEdges"/><rect fill="#1e1e1e" x="48.8" y="196.7" width="97.6" height="24.65" shape-rendering="crispEdges"/><rect fill="#1e1e1e" x="146.4" y="196.7" width="48.8" height="24.65" shape-rendering="crispEdges"/><rect fill="#1e1e1e" x="195.2" y="196.7" width="61" height="24.65" shape-rendering="crispEdges"/><rect fill="#1e1e1e" x="256.2" y="196.7" width="73.2" height="24.65" shape-rendering="crispEdges"/><rect fill="#1e1e1e" x="329.4" y="196.7" width="61" height="24.65" shape-rendering="crispEdges"/><rect fill="#171717" x="390.4" y="196.7" width="48.8" height="24.65" shape-rendering="crispEdges"/><rect fill="#171717" x="439.2" y="196.7" width="85.4" height="24.65" shape-rendering="crispEdges"/><rect fill="#171717" x="524.6" y="196.7" width="61" height="24.65" shape-rendering="crispEdges"/><rect fill="#121212" x="585.6" y="196.7" width="1000.4" height="24.65" shape-rendering="crispEdges"/><rect fill="#1e1e1e" x="0" y="221.1" width="195.2" height="24.65" shape-rendering="crispEdges"/><rect fill="#1e1e1e" x="195.2" y="221.1" width="195.2" height="24.65" shape-rendering="crispEdges"/><rect fill="#171717" x="390.4" y="221.1" width="195.2" height="24.65" shape-rendering="crispEdges"/><rect fill="#121212" x="585.6" y="221.1" width="1000.4" height="24.65" shape-rendering="crispEdges"/><rect fill="#121212" x="0" y="245.5" width="1586" height="24.65" shape-rendering="crispEdges"/><rect fill="#121212" x="0" y="269.9" width="1586" height="24.65" shape-rendering="crispEdges"/><rect fill="#121212" x="0" y="294.3" width="1586" height="24.65" shape-rendering="crispEdges"/><rect fill="#121212" x="0" y="318.7" width="1586" height="24.65" shape-rendering="crispEdges"/><rect fill="#121212" x="0" y="343.1" width="1586" height="24.65" shape-rendering="crispEdges"/><rect fill="#121212" x="0" y="367.5" width="1586" height="24.65" shape-rendering="crispEdges"/><rect fill="#121212" x="0" y="391.9" width="1586" height="24.65" shape-rendering="crispEdges"/><rect fill="#121212" x="0" y="416.3" width="1586" height="24.65" shape-rendering="crispEdges"/><rect fill="#121212" x="0" y="440.7" width="1586" height="24.65" shape-rendering="crispEdges"/><rect fill="#121212" x="0" y="465.1" width="1586" height="24.65" shape-rendering="crispEdges"/><rect fill="#121212" x="0" y="489.5" width="1586" height="24.65" shape-rendering="crispEdges"/><rect fill="#121212" x="0" y="513.9" width="1586" height="24.65" shape-rendering="crispEdges"/><rect fill="#121212" x="0" y="538.3" width="1586" height="24.65" shape-rendering="crispEdges"/><rect fill="#121212" x="0" y="562.7" width="1586" height="24.65" shape-rendering="crispEdges"/><rect fill="#121212" x="0" y="587.1" width="1586" height="24.65" shape-rendering="crispEdges"/><rect fill="#121212" x="0" y="611.5" width="1586" height="24.65" shape-rendering="crispEdges"/><rect fill="#121212" x="0" y="635.9" width="1586" height="24.65" shape-rendering="crispEdges"/><rect fill="#121212" x="0" y="660.3" width="1586" height="24.65" shape-rendering="crispEdges"/><rect fill="#121212" x="0" y="684.7" width="1586" height="24.65" shape-rendering="crispEdges"/><rect fill="#121212" x="0" y="709.1" width="1586" height="24.65" shape-rendering="crispEdges"/><rect fill="#121212" x="0" y="733.5" width="1586" height="24.65" shape-rendering="crispEdges"/><rect fill="#121212" x="0" y="757.9" width="1586" height="24.65" shape-rendering="crispEdges"/><rect fill="#121212" x="0" y="782.3" width="1586" height="24.65" shape-rendering="crispEdges"/><rect fill="#121212" x="0" y="806.7" width="1586" height="24.65" shape-rendering="crispEdges"/><rect fill="#121212" x="0" y="831.1" width="1586" height="24.65" shape-rendering="crispEdges"/><rect fill="#121212" x="0" y="855.5" width="1586" height="24.65" shape-rendering="crispEdges"/><rect fill="#121212" x="0" y="879.9" width="1586" height="24.65" shape-rendering="crispEdges"/><rect fill="#121212" x="0" y="904.3" width="1586" height="24.65" shape-rendering="crispEdges"/><rect fill="#121212" x="0" y="928.7" width="1586" height="24.65" shape-rendering="crispEdges"/><rect fill="#121212" x="0" y="953.1" width="1586" height="24.65" shape-rendering="crispEdges"/><rect fill="#121212" x="0" y="977.5" width="0" height="24.65" shape-rendering="crispEdges"/><rect fill="#121212" x="0" y="977.5" width="1586" height="24.65" shape-rendering="crispEdges"/><rect fill="#242f38" x="0" y="1001.9" width="61" height="24.65" shape-rendering="crispEdges"/><rect fill="#242f38" x="61" y="1001.9" width="256.2" height="24.65" shape-rendering="crispEdges"/><rect fill="#242f38" x="317.2" y="1001.9" width="36.6" height="24.65" shape-rendering="crispEdges"/><rect fill="#242f38" x="353.8" y="1001.9" width="305" height="24.65" shape-rendering="crispEdges"/><rect fill="#242f38" x="658.8" y="1001.9" width="36.6" height="24.65" shape-rendering="crispEdges"/><rect fill="#242f38" x="695.4" y="1001.9" width="341.6" height="24.65" shape-rendering="crispEdges"/><rect fill="#242f38" x="1037" y="1001.9" width="402.6" height="24.65" shape-rendering="crispEdges"/><rect fill="#242f38" x="1439.6" y="1001.9" width="12.2" height="24.65" shape-rendering="crispEdges"/><rect fill="#242f38" x="1451.8" y="1001.9" width="24.4" height="24.65" shape-rendering="crispEdges"/><rect fill="#242f38" x="1476.2" y="1001.9" width="97.6" height="24.65" shape-rendering="crispEdges"/><rect fill="#242f38" x="1573.8" y="1001.9" width="12.2" height="24.65" shape-rendering="crispEdges"/>
    <g class="terminal-1789793860-matrix">
    <text class="terminal-1789793860-r2" x="12.2" y="20" textLength="12.2" clip-path="url(#terminal-1789793860-line-0)">⭘</text><text class="terminal-1789793860-r2" x="585.6" y="20" textLength="378.2" clip-path="url(#terminal-1789793860-line-0)">scg&#160;monitor&#160;—&#160;2&#160;pending&#160;reviews</text><text class="terminal-1789793860-r1" x="1586" y="20" textLength="12.2" clip-path="url(#terminal-1789793860-line-0)">
</text><text class="terminal-1789793860-r2" x="0" y="44.4" textLength="439.2" clip-path="url(#terminal-1789793860-line-1)">Tool:&#160;WebFetch&#160;&#160;|&#160;&#160;Session:&#160;a1b2c3d4</text><text class="terminal-1789793860-r1" x="1586" y="44.4" textLength="12.2" clip-path="url(#terminal-1789793860-line-1)">
</text><text class="terminal-1789793860-r2" x="0" y="68.8" textLength="12.2" clip-path="url(#terminal-1789793860-line-2)">{</text><text class="terminal-1789793860-r1" x="1586" y="68.8" textLength="12.2" clip-path="url(#terminal-1789793860-line-2)">
</text><text class="terminal-1789793860-r2" x="0" y="93.2" textLength="573.4" clip-path="url(#terminal-1789793860-line-3)">&#160;&#160;&quot;url&quot;:&#160;&quot;https://unknown-saas.example.com/api&quot;</text><text class="terminal-1789793860-r1" x="1586" y="93.2" textLength="12.2" clip-path="url(#terminal-1789793860-line-3)">
</text><text class="terminal-1789793860-r2" x="0" y="117.6" textLength="12.2" clip-path="url(#terminal-1789793860-line-4)">}</text><text class="terminal-1789793860-r1" x="1586" y="117.6" textLength="12.2" clip-path="url(#terminal-1789793860-line-4)">
</text><text class="terminal-1789793860-r3" x="0" y="142" textLength="463.6" clip-path="url(#terminal-1789793860-line-5)">&#160;Target&#160;&#160;&#160;&#160;&#160;&#160;&#160;&#160;&#160;&#160;&#160;&#160;&#160;&#160;&#160;&#160;&#160;&#160;&#160;&#160;&#160;&#160;&#160;&#160;&#160;&#160;&#160;&#160;&#160;&#160;&#160;</text><text class="terminal-1789793860-r3" x="463.6" y="142" textLength="73.2" clip-path="url(#terminal-1789793860-line-5)">&#160;Kind&#160;</text><text class="terminal-1789793860-r3" x="536.8" y="142" textLength="207.4" clip-path="url(#terminal-1789793860-line-5)">&#160;Status&#160;&#160;&#160;&#160;&#160;&#160;&#160;&#160;&#160;&#160;</text><text class="terminal-1789793860-r3" x="744.2" y="142" textLength="122" clip-path="url(#terminal-1789793860-line-5)">&#160;Verified&#160;</text><text class="terminal-1789793860-r1" x="1586" y="142" textLength="12.2" clip-path="url(#terminal-1789793860-line-5)">
</text><text class="terminal-1789793860-r4" x="0" y="166.4" textLength="463.6" clip-path="url(#terminal-1789793860-line-6)">&#160;https://unknown-saas.example.com/api&#160;</text><text class="terminal-1789793860-r2" x="463.6" y="166.4" textLength="73.2" clip-path="url(#terminal-1789793860-line-6)">&#160;url&#160;&#160;</text><text class="terminal-1789793860-r2" x="536.8" y="166.4" textLength="207.4" clip-path="url(#terminal-1789793860-line-6)">&#160;not&#160;yet&#160;scanned&#160;</text><text class="terminal-1789793860-r2" x="744.2" y="166.4" textLength="122" clip-path="url(#terminal-1789793860-line-6)">&#160;no&#160;&#160;&#160;&#160;&#160;&#160;&#160;</text><text class="terminal-1789793860-r1" x="1586" y="166.4" textLength="12.2" clip-path="url(#terminal-1789793860-line-6)">
</text><text class="terminal-1789793860-r5" x="0" y="190.8" textLength="195.2" clip-path="url(#terminal-1789793860-line-7)">▔▔▔▔▔▔▔▔▔▔▔▔▔▔▔▔</text><text class="terminal-1789793860-r5" x="195.2" y="190.8" textLength="195.2" clip-path="url(#terminal-1789793860-line-7)">▔▔▔▔▔▔▔▔▔▔▔▔▔▔▔▔</text><text class="terminal-1789793860-r6" x="390.4" y="190.8" textLength="195.2" clip-path="url(#terminal-1789793860-line-7)">▔▔▔▔▔▔▔▔▔▔▔▔▔▔▔▔</text><text class="terminal-1789793860-r1" x="1586" y="190.8" textLength="12.2" clip-path="url(#terminal-1789793860-line-7)">
</text><text class="terminal-1789793860-r3" x="48.8" y="215.2" textLength="97.6" clip-path="url(#terminal-1789793860-line-8)">&#160;Verify&#160;</text><text class="terminal-1789793860-r3" x="256.2" y="215.2" textLength="73.2" clip-path="url(#terminal-1789793860-line-8)">&#160;Deny&#160;</text><text class="terminal-1789793860-r7" x="439.2" y="215.2" textLength="85.4" clip-path="url(#terminal-1789793860-line-8)">&#160;Allow&#160;</text><text class="terminal-1789793860-r1" x="1586" y="215.2" textLength="12.2" clip-path="url(#terminal-1789793860-line-8)">
</text><text class="terminal-1789793860-r8" x="0" y="239.6" textLength="195.2" clip-path="url(#terminal-1789793860-line-9)">▁▁▁▁▁▁▁▁▁▁▁▁▁▁▁▁</text><text class="terminal-1789793860-r8" x="195.2" y="239.6" textLength="195.2" clip-path="url(#terminal-1789793860-line-9)">▁▁▁▁▁▁▁▁▁▁▁▁▁▁▁▁</text><text class="terminal-1789793860-r9" x="390.4" y="239.6" textLength="195.2" clip-path="url(#terminal-1789793860-line-9)">▁▁▁▁▁▁▁▁▁▁▁▁▁▁▁▁</text><text class="terminal-1789793860-r1" x="1586" y="239.6" textLength="12.2" clip-path="url(#terminal-1789793860-line-9)">
</text><text class="terminal-1789793860-r1" x="1586" y="264" textLength="12.2" clip-path="url(#terminal-1789793860-line-10)">
</text><text class="terminal-1789793860-r1" x="1586" y="288.4" textLength="12.2" clip-path="url(#terminal-1789793860-line-11)">
</text><text class="terminal-1789793860-r1" x="1586" y="312.8" textLength="12.2" clip-path="url(#terminal-1789793860-line-12)">
</text><text class="terminal-1789793860-r1" x="1586" y="337.2" textLength="12.2" clip-path="url(#terminal-1789793860-line-13)">
</text><text class="terminal-1789793860-r1" x="1586" y="361.6" textLength="12.2" clip-path="url(#terminal-1789793860-line-14)">
</text><text class="terminal-1789793860-r1" x="1586" y="386" textLength="12.2" clip-path="url(#terminal-1789793860-line-15)">
</text><text class="terminal-1789793860-r1" x="1586" y="410.4" textLength="12.2" clip-path="url(#terminal-1789793860-line-16)">
</text><text class="terminal-1789793860-r1" x="1586" y="434.8" textLength="12.2" clip-path="url(#terminal-1789793860-line-17)">
</text><text class="terminal-1789793860-r1" x="1586" y="459.2" textLength="12.2" clip-path="url(#terminal-1789793860-line-18)">
</text><text class="terminal-1789793860-r1" x="1586" y="483.6" textLength="12.2" clip-path="url(#terminal-1789793860-line-19)">
</text><text class="terminal-1789793860-r1" x="1586" y="508" textLength="12.2" clip-path="url(#terminal-1789793860-line-20)">
</text><text class="terminal-1789793860-r1" x="1586" y="532.4" textLength="12.2" clip-path="url(#terminal-1789793860-line-21)">
</text><text class="terminal-1789793860-r1" x="1586" y="556.8" textLength="12.2" clip-path="url(#terminal-1789793860-line-22)">
</text><text class="terminal-1789793860-r1" x="1586" y="581.2" textLength="12.2" clip-path="url(#terminal-1789793860-line-23)">
</text><text class="terminal-1789793860-r1" x="1586" y="605.6" textLength="12.2" clip-path="url(#terminal-1789793860-line-24)">
</text><text class="terminal-1789793860-r1" x="1586" y="630" textLength="12.2" clip-path="url(#terminal-1789793860-line-25)">
</text><text class="terminal-1789793860-r1" x="1586" y="654.4" textLength="12.2" clip-path="url(#terminal-1789793860-line-26)">
</text><text class="terminal-1789793860-r1" x="1586" y="678.8" textLength="12.2" clip-path="url(#terminal-1789793860-line-27)">
</text><text class="terminal-1789793860-r1" x="1586" y="703.2" textLength="12.2" clip-path="url(#terminal-1789793860-line-28)">
</text><text class="terminal-1789793860-r1" x="1586" y="727.6" textLength="12.2" clip-path="url(#terminal-1789793860-line-29)">
</text><text class="terminal-1789793860-r1" x="1586" y="752" textLength="12.2" clip-path="url(#terminal-1789793860-line-30)">
</text><text class="terminal-1789793860-r1" x="1586" y="776.4" textLength="12.2" clip-path="url(#terminal-1789793860-line-31)">
</text><text class="terminal-1789793860-r1" x="1586" y="800.8" textLength="12.2" clip-path="url(#terminal-1789793860-line-32)">
</text><text class="terminal-1789793860-r1" x="1586" y="825.2" textLength="12.2" clip-path="url(#terminal-1789793860-line-33)">
</text><text class="terminal-1789793860-r1" x="1586" y="849.6" textLength="12.2" clip-path="url(#terminal-1789793860-line-34)">
</text><text class="terminal-1789793860-r1" x="1586" y="874" textLength="12.2" clip-path="url(#terminal-1789793860-line-35)">
</text><text class="terminal-1789793860-r1" x="1586" y="898.4" textLength="12.2" clip-path="url(#terminal-1789793860-line-36)">
</text><text class="terminal-1789793860-r1" x="1586" y="922.8" textLength="12.2" clip-path="url(#terminal-1789793860-line-37)">
</text><text class="terminal-1789793860-r1" x="1586" y="947.2" textLength="12.2" clip-path="url(#terminal-1789793860-line-38)">
</text><text class="terminal-1789793860-r1" x="1586" y="971.6" textLength="12.2" clip-path="url(#terminal-1789793860-line-39)">
</text><text class="terminal-1789793860-r1" x="1586" y="996" textLength="12.2" clip-path="url(#terminal-1789793860-line-40)">
</text><text class="terminal-1789793860-r10" x="0" y="1020.4" textLength="61" clip-path="url(#terminal-1789793860-line-41)">&#160;esc&#160;</text><text class="terminal-1789793860-r2" x="61" y="1020.4" textLength="256.2" clip-path="url(#terminal-1789793860-line-41)">Close&#160;(stays&#160;queued)&#160;</text><text class="terminal-1789793860-r10" x="317.2" y="1020.4" textLength="36.6" clip-path="url(#terminal-1789793860-line-41)">&#160;a&#160;</text><text class="terminal-1789793860-r2" x="353.8" y="1020.4" textLength="305" clip-path="url(#terminal-1789793860-line-41)">Toggle&#160;all-sessions&#160;feed&#160;</text><text class="terminal-1789793860-r10" x="658.8" y="1020.4" textLength="36.6" clip-path="url(#terminal-1789793860-line-41)">&#160;r&#160;</text><text class="terminal-1789793860-r2" x="695.4" y="1020.4" textLength="341.6" clip-path="url(#terminal-1789793860-line-41)">Review&#160;oldest&#160;pending&#160;block&#160;</text><text class="terminal-1789793860-r11" x="1439.6" y="1020.4" textLength="12.2" clip-path="url(#terminal-1789793860-line-41)">▏</text><text class="terminal-1789793860-r10" x="1451.8" y="1020.4" textLength="24.4" clip-path="url(#terminal-1789793860-line-41)">^p</text><text class="terminal-1789793860-r2" x="1476.2" y="1020.4" textLength="97.6" clip-path="url(#terminal-1789793860-line-41)">&#160;palette</text>
    </g>
    </g>
</svg>
